<svg width="16" height="20" viewBox="0 0 16 20" fill="none" xmlns="http://www.w3.org/2000/svg">
<path fill-rule="evenodd" clip-rule="evenodd" d="M3.5 4.25C3.5 1.93579 5.43579 0 7.75 0C10.0642 0 12 1.93579 12 4.25C12 6.56421 10.0642 8.5 7.75 8.5C5.43579 8.5 3.5 6.56421 3.5 4.25ZM7.75 1.5C6.26421 1.5 5 2.76421 5 4.25C5 5.73579 6.26421 7 7.75 7C9.23579 7 10.5 5.73579 10.5 4.25C10.5 2.76421 9.23579 1.5 7.75 1.5ZM12.1104 13.1972C10.9703 11.6621 9.43893 10.8569 7.76922 10.8998C4.44924 10.9849 1.5 14.2576 1.5 19.95H0C0 13.8424 3.25076 9.51512 7.73078 9.40025C9.96107 9.34306 11.9297 10.4379 13.3146 12.3028C14.6928 14.1586 15.5 16.7754 15.5 19.85H14C14 17.0246 13.2572 14.7414 12.1104 13.1972Z" fill="#101010"/>
</svg>
