<svg width="21" height="20" viewBox="0 0 21 20" fill="none" xmlns="http://www.w3.org/2000/svg">
<path fill-rule="evenodd" clip-rule="evenodd" d="M7.95777 2.71603C7.3779 3.54892 6.97975 4.81385 6.97975 6.45H5.47975C5.47975 4.58615 5.93159 3.00108 6.72673 1.85897C7.5279 0.708193 8.69128 0 10.0297 0C11.3801 0 12.5411 0.744897 13.3353 1.9001C14.1261 3.05045 14.5797 4.63223 14.5797 6.45H13.0797C13.0797 4.86777 12.6833 3.59955 12.0992 2.7499C11.5184 1.9051 10.7794 1.5 10.0297 1.5C9.26822 1.5 8.53159 1.89181 7.95777 2.71603ZM0 8H20.0595L17.7639 18.6036C17.5862 19.4762 16.858 20 16.0297 20H4.02975C3.20144 20 2.47324 19.4762 2.29563 18.6036L0 8ZM1.85949 9.5L3.76527 18.3029C3.78199 18.3865 3.81558 18.4261 3.84311 18.4478C3.87335 18.4715 3.931 18.5 4.02975 18.5H16.0297C16.1285 18.5 16.1861 18.4715 16.2164 18.4478C16.2439 18.4261 16.2776 18.3865 16.2943 18.3029L16.2966 18.2913L18.2 9.5H1.85949Z" fill="#101010"/>
</svg>
