<svg width="500" height="75" viewBox="0 0 500 75" fill="none" xmlns="http://www.w3.org/2000/svg">
<path d="M153.389 63.75H188.687V52.35H166.821V42.7875H186.187V32.175H166.821V22.6125H188.687V11.25H153.389V63.75ZM232.493 41.1375C227.381 49.3125 222.419 52.725 216.038 52.725C207.754 52.725 202.941 46.875 202.941 36.7125C202.941 27.075 207.381 22.275 214.21 22.275C218.724 22.275 222.456 24.3 223.613 31.05H237.045C235.59 18.1875 227.419 10.2 214.359 10.2C199.21 10.2 189.247 20.9625 189.247 37.4625C189.247 54.075 199.21 64.8 215.59 64.8C226.299 64.8 233.575 60.3 238.389 54.225H256.71V63.75H270.068V11.25H251.113L232.493 41.1375ZM256.71 43.6875H244.881L256.71 24.375V43.6875ZM124.732 11.25H105.105V63.75H124.732C140.292 63.75 150.329 53.4375 150.329 37.5C150.329 21.5625 140.292 11.25 124.732 11.25ZM124.545 52.35H118.538V22.6125H124.545C132.307 22.6125 136.672 28.125 136.672 37.5C136.672 46.8375 132.307 52.35 124.545 52.35ZM424.247 10.2C408.463 10.2 397.866 20.9625 397.866 37.5C397.866 54.0375 408.463 64.8 424.247 64.8C440.068 64.8 450.627 54.0375 450.627 37.5C450.627 20.9625 440.068 10.2 424.247 10.2ZM424.247 52.725C416.486 52.725 411.598 47.5125 411.598 37.5C411.598 27.4875 416.486 22.275 424.247 22.275C432.045 22.275 436.896 27.4875 436.896 37.5C436.896 47.5125 432.045 52.725 424.247 52.725ZM273.426 22.6125H286.598V63.75H300.03V22.6125H313.202V11.25H273.426L273.426 22.6125ZM484.919 11.25V40.1625L467.605 11.25H453.687V63.75H466.672V33.6375L484.695 63.75H497.904V11.25L484.919 11.25ZM378.836 11.25H365.404V63.75H399.098V52.3875H378.836V11.25ZM348.09 31.275H329.993V11.25H316.56V63.75H329.993V42.6H348.09V63.75H361.523V11.25H348.09V31.275Z" fill="#3643BA"/>
<path d="M67.1952 0C38.0259 0 1.74219 30.3311 1.74219 55.4691C1.74219 68.4521 11.665 75 24.7705 75C34.3938 75 46.039 71.4626 57.2724 64.6513V14.4882C54.2768 19.6437 40.1977 40.4165 28.8894 51.4802C23.123 57.1249 18.5548 59.571 14.6231 59.571C10.2046 59.571 8.10777 56.5605 8.10777 52.0823C8.10777 31.7612 42.1448 5.34371 64.6864 5.34371C73.9726 5.34371 79.9637 9.48319 79.9637 17.5364C79.9637 24.9122 74.9836 34.1696 66.4837 42.712V58.2539C81.3118 46.4752 90.1861 31.4601 90.1861 19.3427C90.1861 6.58555 80.3007 0 67.1952 0Z" fill="#3643BA"/>
</svg>
