<svg width="20" height="16" viewBox="0 0 20 16" fill="none" xmlns="http://www.w3.org/2000/svg">
<path fill-rule="evenodd" clip-rule="evenodd" d="M14 1.75C14 0.783502 13.2165 0 12.25 0H1.75C0.783503 0 0 0.783502 0 1.75V11.25C0 12.2165 0.783503 13 1.75 13H2.00947C2.13713 14.6781 3.53919 16 5.25 16C6.96081 16 8.36287 14.6781 8.49053 13H11.5095C11.6371 14.6781 13.0392 16 14.75 16C16.4608 16 17.8629 14.6781 17.9905 13H18.25C19.2165 13 20 12.2165 20 11.25V6.31238C20 5.95642 19.8915 5.60892 19.6888 5.31626L17.9149 2.75388C17.588 2.28174 17.0503 2 16.476 2H14V1.75ZM12.5 10.4048C12.1799 10.712 11.9225 11.0841 11.7491 11.5H8.25092C7.76114 10.3255 6.60198 9.5 5.25 9.5C3.89802 9.5 2.73886 10.3255 2.24908 11.5H1.75C1.61193 11.5 1.5 11.3881 1.5 11.25V1.75C1.5 1.61193 1.61193 1.5 1.75 1.5H12.25C12.3881 1.5 12.5 1.61193 12.5 1.75V10.4048ZM14 9.58697V3.5H16.476C16.5581 3.5 16.6349 3.54025 16.6816 3.6077L18.4555 6.17007C18.4845 6.21188 18.5 6.26153 18.5 6.31238V11.25C18.5 11.3881 18.3881 11.5 18.25 11.5H17.7509C17.2611 10.3255 16.102 9.5 14.75 9.5C14.4919 9.5 14.2408 9.53009 14 9.58697ZM14.75 11C15.7165 11 16.5 11.7835 16.5 12.75C16.5 13.7165 15.7165 14.5 14.75 14.5C13.7835 14.5 13 13.7165 13 12.75C13 11.7835 13.7835 11 14.75 11ZM5.25 11C6.2165 11 7 11.7835 7 12.75C7 13.7165 6.2165 14.5 5.25 14.5C4.2835 14.5 3.5 13.7165 3.5 12.75C3.5 11.7835 4.2835 11 5.25 11Z" fill="#101010"/>
</svg>
