<svg width="20" height="20" viewBox="0 0 20 20" fill="none" xmlns="http://www.w3.org/2000/svg">
<path fill-rule="evenodd" clip-rule="evenodd" d="M9.95 1.5C5.28319 1.5 1.5 5.28319 1.5 9.95C1.5 14.6168 5.28319 18.4 9.95 18.4C14.6168 18.4 18.4 14.6168 18.4 9.95C18.4 5.28319 14.6168 1.5 9.95 1.5ZM0 9.95C0 4.45477 4.45477 0 9.95 0C15.4452 0 19.9 4.45477 19.9 9.95C19.9 15.4452 15.4452 19.9 9.95 19.9C4.45477 19.9 0 15.4452 0 9.95ZM6.60221 7.89248C6.73115 6.21624 8.14371 4.8 9.95 4.8C11.7642 4.8 13.3 6.33579 13.3 8.15C13.3 8.97189 12.9039 9.85681 12.2803 10.4803C11.9909 10.7698 11.65 10.9805 11.3896 11.1414C11.3576 11.1611 11.3268 11.1802 11.2975 11.1985C11.0037 11.3821 10.7936 11.5292 10.6262 11.7301L10.6044 11.7563L10.5803 11.7803C10.3804 11.9803 10.3 12.2452 10.3 12.65H8.8C8.8 12.0629 8.91637 11.3398 9.49538 10.7443C9.82311 10.36 10.2029 10.1138 10.5025 9.9265C10.5327 9.90763 10.5619 9.88945 10.5901 9.87185C10.8725 9.69593 11.0606 9.57873 11.2197 9.41967C11.5961 9.04319 11.8 8.52811 11.8 8.15C11.8 7.16421 10.9358 6.3 9.95 6.3C8.96569 6.3 8.18377 7.069 8.1 7.98134V8.34914L6.6 8.35V7.9212L6.60221 7.89248Z" fill="#101010"/>
<path d="M9.55002 15.45C10.0471 15.45 10.45 15.0471 10.45 14.55C10.45 14.0529 10.0471 13.65 9.55002 13.65C9.05297 13.65 8.65002 14.0529 8.65002 14.55C8.65002 15.0471 9.05297 15.45 9.55002 15.45Z" fill="#101010"/>
</svg>
