<svg width="18" height="18" viewBox="0 0 18 18" fill="none" xmlns="http://www.w3.org/2000/svg">
<path fill-rule="evenodd" clip-rule="evenodd" d="M9 0C6.5556 0 6.2496 0.0102 5.2896 0.054C4.3314 0.0978 3.6768 0.2502 3.1044 0.4728C2.5044 0.6984 1.9602 1.0524 1.5102 1.5108C1.05253 1.96028 0.698315 2.5041 0.4722 3.1044C0.2508 3.6768 0.0978 4.332 0.054 5.2902C0.0108 6.2496 0 6.555 0 9C0 11.445 0.0102 11.7504 0.054 12.7104C0.0978 13.6686 0.2502 14.3232 0.4728 14.8956C0.6984 15.4956 1.0524 16.0398 1.5108 16.4898C1.96029 16.9475 2.50411 17.3017 3.1044 17.5278C3.6768 17.7498 4.3314 17.9022 5.2896 17.946C6.2496 17.9898 6.5556 18 9 18C11.4444 18 11.7504 17.9898 12.7104 17.946C13.6686 17.9022 14.3232 17.7498 14.8956 17.5272C15.4956 17.3016 16.0398 16.9476 16.4898 16.4892C16.9475 16.0397 17.3017 15.4959 17.5278 14.8956C17.7498 14.3232 17.9022 13.6686 17.946 12.7104C17.9898 11.7504 18 11.4444 18 9C18 6.5556 17.9898 6.2496 17.946 5.2896C17.9022 4.3314 17.7498 3.6768 17.5272 3.1044C17.3012 2.50384 16.947 1.95979 16.4892 1.5102C16.0397 1.05253 15.4959 0.698315 14.8956 0.4722C14.3232 0.2508 13.668 0.0978 12.7098 0.054C11.7504 0.0108 11.445 0 9 0ZM9 1.6218C11.403 1.6218 11.688 1.6308 12.6372 1.674C13.5144 1.7142 13.9908 1.86 14.3082 1.9842C14.7282 2.1468 15.0282 2.3424 15.3432 2.6568C15.6582 2.9718 15.8532 3.2718 16.0158 3.6918C16.1394 4.0092 16.2858 4.4856 16.326 5.3628C16.3692 6.312 16.3782 6.597 16.3782 9C16.3782 11.403 16.3692 11.688 16.326 12.6372C16.2858 13.5144 16.14 13.9908 16.0158 14.3082C15.8718 14.6991 15.6419 15.0528 15.3432 15.3432C15.0528 15.642 14.6992 15.8718 14.3082 16.0158C13.9908 16.1394 13.5144 16.2858 12.6372 16.326C11.688 16.3692 11.4036 16.3782 9 16.3782C6.5964 16.3782 6.312 16.3692 5.3628 16.326C4.4856 16.2858 4.0092 16.14 3.6918 16.0158C3.30087 15.8718 2.9472 15.6419 2.6568 15.3432C2.35811 15.0528 2.12828 14.6991 1.9842 14.3082C1.8606 13.9908 1.7142 13.5144 1.674 12.6372C1.6308 11.688 1.6218 11.403 1.6218 9C1.6218 6.597 1.6308 6.312 1.674 5.3628C1.7142 4.4856 1.86 4.0092 1.9842 3.6918C2.1468 3.2718 2.3424 2.9718 2.6568 2.6568C2.94716 2.35803 3.30085 2.12819 3.6918 1.9842C4.0092 1.8606 4.4856 1.7142 5.3628 1.674C6.312 1.6308 6.597 1.6218 9 1.6218V1.6218Z" fill="white"/>
<path fill-rule="evenodd" clip-rule="evenodd" d="M9.001 12.0038C8.60664 12.0038 8.21614 11.9261 7.8518 11.7752C7.48746 11.6243 7.15641 11.4031 6.87756 11.1242C6.5987 10.8454 6.3775 10.5143 6.22659 10.15C6.07567 9.78562 5.998 9.39513 5.998 9.00077C5.998 8.60641 6.07567 8.21591 6.22659 7.85157C6.3775 7.48723 6.5987 7.15618 6.87756 6.87732C7.15641 6.59847 7.48746 6.37727 7.8518 6.22636C8.21614 6.07544 8.60664 5.99777 9.001 5.99777C9.79744 5.99777 10.5613 6.31415 11.1244 6.87732C11.6876 7.4405 12.004 8.20432 12.004 9.00077C12.004 9.79721 11.6876 10.561 11.1244 11.1242C10.5613 11.6874 9.79744 12.0038 9.001 12.0038V12.0038ZM9.001 4.37477C7.77411 4.37477 6.59747 4.86215 5.72992 5.72969C4.86238 6.59723 4.375 7.77387 4.375 9.00077C4.375 10.2277 4.86238 11.4043 5.72992 12.2718C6.59747 13.1394 7.77411 13.6268 9.001 13.6268C10.2279 13.6268 11.4045 13.1394 12.2721 12.2718C13.1396 11.4043 13.627 10.2277 13.627 9.00077C13.627 7.77387 13.1396 6.59723 12.2721 5.72969C11.4045 4.86215 10.2279 4.37477 9.001 4.37477V4.37477ZM14.9728 4.29077C14.9728 4.58078 14.8576 4.85892 14.6525 5.06399C14.4474 5.26906 14.1693 5.38427 13.8793 5.38427C13.5893 5.38427 13.3111 5.26906 13.1061 5.06399C12.901 4.85892 12.7858 4.58078 12.7858 4.29077C12.7858 4.00075 12.901 3.72262 13.1061 3.51754C13.3111 3.31247 13.5893 3.19727 13.8793 3.19727C14.1693 3.19727 14.4474 3.31247 14.6525 3.51754C14.8576 3.72262 14.9728 4.00075 14.9728 4.29077" fill="white"/>
</svg>
