<svg width="160" height="32" viewBox="0 0 160 32" fill="none" xmlns="http://www.w3.org/2000/svg">
<path d="M24.448 4.57227C15.5755 4.57227 4.53906 13.816 4.53906 21.4771C4.53906 25.4339 7.5573 27.4294 11.5436 27.4294C14.4708 27.4294 18.0129 26.3513 21.4298 24.2755V8.98772C20.5186 10.5589 16.2361 16.8897 12.7965 20.2615C11.0425 21.9818 9.65298 22.7272 8.45708 22.7272C7.1131 22.7272 6.47529 21.8097 6.47529 20.445C6.47529 14.2519 16.8284 6.20082 23.6849 6.20082C26.5095 6.20082 28.3319 7.46238 28.3319 9.91669C28.3319 12.1646 26.817 14.9859 24.2316 17.5893V22.3258C28.7419 18.7361 31.4412 14.1601 31.4412 10.4672C31.4412 6.57929 28.4344 4.57227 24.448 4.57227Z" fill="white"/>
<path d="M50.6709 23.9997H61.4077V20.5254H54.7568V17.6111H60.6473V14.3768H54.7568V11.4625H61.4077V7.99969H50.6709V23.9997ZM74.7322 17.1083C73.1773 19.5997 71.6678 20.6397 69.727 20.6397C67.2074 20.6397 65.7433 18.8568 65.7433 15.7597C65.7433 12.8225 67.0939 11.3597 69.1709 11.3597C70.5442 11.3597 71.6792 11.9768 72.031 14.034H76.1169C75.6743 10.114 73.1887 7.67969 69.2163 7.67969C64.6083 7.67969 61.5779 10.9597 61.5779 15.9883C61.5779 21.0511 64.6083 24.3197 69.5908 24.3197C72.8482 24.3197 75.0614 22.9483 76.5255 21.0968H82.0982V23.9997H86.1614V7.99969H80.3957L74.7322 17.1083ZM82.0982 17.8854H78.5003L82.0982 11.9997V17.8854ZM41.9543 7.99969H35.9844V23.9997H41.9543C46.6871 23.9997 49.7402 20.8568 49.7402 15.9997C49.7402 11.1425 46.6871 7.99969 41.9543 7.99969ZM41.8976 20.5254H40.0703V11.4625H41.8976C44.2583 11.4625 45.5862 13.1425 45.5862 15.9997C45.5862 18.8454 44.2583 20.5254 41.8976 20.5254ZM133.058 7.67969C128.257 7.67969 125.034 10.9597 125.034 15.9997C125.034 21.0397 128.257 24.3197 133.058 24.3197C137.871 24.3197 141.083 21.0397 141.083 15.9997C141.083 10.9597 137.871 7.67969 133.058 7.67969ZM133.058 20.6397C130.698 20.6397 129.211 19.0511 129.211 15.9997C129.211 12.9483 130.698 11.3597 133.058 11.3597C135.43 11.3597 136.906 12.9483 136.906 15.9997C136.906 19.0511 135.43 20.6397 133.058 20.6397ZM87.1829 11.4625H91.1893V23.9997H95.2752V11.4625H99.2816V7.99969H87.1828L87.1829 11.4625ZM151.513 7.99969V16.8111L146.247 7.99969H142.013V23.9997H145.963V14.8225L151.445 23.9997H155.463V7.99969L151.513 7.99969ZM119.246 7.99969H115.16V23.9997H125.409V20.5368H119.246V7.99969ZM109.894 14.1025H104.389V7.99969H100.303V23.9997H104.389V17.554H109.894V23.9997H113.979V7.99969H109.894V14.1025Z" fill="white"/>
</svg>
