<svg width="16" height="21" viewBox="0 0 16 21" fill="none" xmlns="http://www.w3.org/2000/svg">
<path fill-rule="evenodd" clip-rule="evenodd" d="M12.8388 3.84306C10.2369 0.715499 5.4997 0.718985 2.90252 3.85351L2.89929 3.8574C1.03359 6.07848 1.03357 9.37153 2.89928 11.5926L2.90823 11.6033L7.82931 17.6877L12.7415 11.7037C12.7422 11.703 12.7428 11.7022 12.7434 11.7014C14.6177 9.37871 14.6215 6.17042 12.8388 3.84306ZM1.74909 2.89455C4.94937 -0.965496 10.8031 -0.96485 14.0025 2.89649L14.0112 2.90695L14.0195 2.91772C16.2279 5.78872 16.2294 9.77275 13.9085 12.6463L13.9047 12.6509L7.82069 20.0623L1.74613 12.5519C-0.583029 9.77373 -0.582043 5.67162 1.74909 2.89455ZM4.275 7.775C4.275 5.79569 5.77672 4.125 7.825 4.125C9.88937 4.125 11.375 5.91279 11.375 7.775C11.375 9.68921 9.73921 11.325 7.825 11.325C5.92835 11.325 4.275 9.80656 4.275 7.775ZM7.825 5.625C6.67327 5.625 5.775 6.55431 5.775 7.775C5.775 8.94344 6.72165 9.825 7.825 9.825C8.91079 9.825 9.875 8.86079 9.875 7.775C9.875 6.63721 8.96063 5.625 7.825 5.625Z" fill="#101010"/>
</svg>
