<svg width="20" height="20" viewBox="0 0 20 20" fill="none" xmlns="http://www.w3.org/2000/svg">
<path fill-rule="evenodd" clip-rule="evenodd" d="M8.25 1.5C4.56421 1.5 1.5 4.56421 1.5 8.25C1.5 11.9358 4.56421 15 8.25 15C11.9358 15 15 11.9358 15 8.25C15 4.56421 11.9358 1.5 8.25 1.5ZM0 8.25C0 3.73579 3.73579 0 8.25 0C12.7642 0 16.5 3.73579 16.5 8.25C16.5 12.7642 12.7642 16.5 8.25 16.5C3.73579 16.5 0 12.7642 0 8.25ZM15.9803 15.0197L19.8803 18.9197L18.8197 19.9803L14.9197 16.0803L15.9803 15.0197Z" fill="#616161"/>
</svg>
