<svg width="20" height="21" viewBox="0 0 20 21" fill="none" xmlns="http://www.w3.org/2000/svg">
<path fill-rule="evenodd" clip-rule="evenodd" d="M6.69376 1.89171C7.49083 0.730893 8.65329 0 9.99954 0C11.3458 0 12.5083 0.730893 13.3053 1.89171C14.0976 3.04555 14.5495 4.64082 14.5495 6.5H13.0495C13.0495 4.86918 12.6515 3.58945 12.0688 2.74079C11.4908 1.89911 10.7533 1.5 9.99954 1.5C9.2458 1.5 8.50825 1.89911 7.93032 2.74079C7.34759 3.58945 6.94954 4.86918 6.94954 6.5H5.44954C5.44954 4.64082 5.9015 3.04555 6.69376 1.89171ZM0 8H19.9775L19.0729 12.2173L17.6062 11.9027L18.1216 9.5H1.85909L3.76243 18.3007C3.78761 18.4155 3.89234 18.5 4.00954 18.5H11.8695V20H4.00954C3.18689 20 2.47165 19.4242 2.29666 18.6193L0 8ZM11.0088 11.1992L15.2075 12.5887L19.8591 14.1449L15.721 15.9115L13.9544 20.0496L12.3983 15.3979L12.3975 15.3956L11.0088 11.1992ZM13.3703 13.5608L13.8208 14.9221L13.8216 14.9244L14.1247 15.8304L14.578 14.7685L15.64 14.3151L14.7339 14.012L14.7316 14.0113L13.3703 13.5608Z" fill="#101010"/>
</svg>
