<svg width="18" height="20" viewBox="0 0 18 20" fill="none" xmlns="http://www.w3.org/2000/svg">
<path fill-rule="evenodd" clip-rule="evenodd" d="M9 1.5C6.10421 1.5 3.75 3.85421 3.75 6.75V14.06H1.75C0.785786 14.06 0 13.2742 0 12.31V10C0 9.03579 0.785786 8.25 1.75 8.25H2.25V6.75C2.25 3.02579 5.27579 0 9 0C12.7242 0 15.75 3.02579 15.75 6.75V8.25H16.25C17.2142 8.25 18 9.03579 18 10V12.31C18 13.2742 17.2142 14.06 16.25 14.06H15.7018C15.3008 17.4032 12.4501 20 9 20V18.5C11.8958 18.5 14.25 16.1458 14.25 13.25V6.75C14.25 3.85421 11.8958 1.5 9 1.5ZM15.75 12.56V9.75H16.25C16.3858 9.75 16.5 9.86421 16.5 10V12.31C16.5 12.4458 16.3858 12.56 16.25 12.56H15.75ZM2.25 9.75H1.75C1.61421 9.75 1.5 9.86421 1.5 10V12.31C1.5 12.4458 1.61421 12.56 1.75 12.56H2.25V9.75ZM11.4697 12.4697L12.5303 13.5303C10.5774 15.4832 7.42256 15.4832 5.46967 13.5303L6.53033 12.4697C7.89744 13.8368 10.1026 13.8368 11.4697 12.4697Z" fill="#101010"/>
</svg>
