<svg width="14" height="16" viewBox="0 0 14 16" fill="none" xmlns="http://www.w3.org/2000/svg">
<path fill-rule="evenodd" clip-rule="evenodd" d="M7 2.79322L7.70087 4.633C8.42472 6.53313 9.86687 7.97527 11.767 8.69913L13.6068 9.39999L11.767 10.1009C9.86687 10.8247 8.42472 12.2669 7.70087 14.167L7 16.0068L6.29913 14.167C5.57528 12.2669 4.13313 10.8247 2.233 10.1009L0.393231 9.39999L2.233 8.69913C4.13313 7.97527 5.57528 6.53313 6.29913 4.633L7 2.79322ZM4.19965 9.4C5.34711 10.0994 6.30055 11.0529 7 12.2003C7.69945 11.0529 8.65289 10.0994 9.80035 9.4C8.65289 8.70055 7.69945 7.74711 7 6.59964C6.30055 7.74711 5.34711 8.70055 4.19965 9.4Z" fill="white"/>
<path fill-rule="evenodd" clip-rule="evenodd" d="M4 4.4C3.1 4.7 2.3 5.5 2 6.4C1.7 5.5 0.9 4.7 0 4.4C0.9 4.1 1.7 3.3 2 2.4C2.3 3.3 3.1 4.1 4 4.4Z" fill="white"/>
<path fill-rule="evenodd" clip-rule="evenodd" d="M6.2 1.2C5.7 1.4 5.2 1.8 5 2.4C4.8 1.8 4.3 1.4 3.8 1.2C4.4 1 4.8 0.5 5 0C5.2 0.5 5.7 0.9 6.2 1.2Z" fill="white"/>
</svg>
