<svg width="19" height="17" viewBox="0 0 19 17" fill="none" xmlns="http://www.w3.org/2000/svg">
<path fill-rule="evenodd" clip-rule="evenodd" d="M9.16951 2.02012C9.91398 1.17628 11.9002 -0.622645 14.5443 0.218664L14.5541 0.221779C15.9747 0.695318 17.604 2.09416 17.9567 4.30966C18.3248 6.41297 17.6656 10.8644 9.44855 16.6467L9.01693 16.9504L8.58531 16.6467C0.368378 10.8644 -0.290952 6.41306 0.0771615 4.30973C0.429801 2.09419 2.05913 0.695389 3.47976 0.221846L3.50345 0.213949L3.52761 0.207646C6.25286 -0.503288 8.12719 1.18297 8.94726 2.00303L8.96762 2.0234L9.05929 2.13034L9.16951 2.02012ZM14.0846 1.64649C12.3514 1.09807 10.9499 2.26325 10.2814 3.02724L10.2649 3.04603L8.97457 4.33638L7.86652 3.04365C7.08746 2.2683 5.77664 1.1838 3.93084 1.65274C2.9577 1.98671 1.80534 2.98224 1.55775 4.55033L1.55564 4.56372C1.33054 5.83928 1.46891 9.66437 9.01693 15.1124C16.5649 9.66437 16.7034 5.83926 16.4783 4.5637L16.476 4.55035C16.2268 2.97235 15.0615 1.97414 14.0846 1.64649Z" fill="#101010"/>
</svg>
